<svg width="450" height="450" viewBox="0 0 450 450" fill="none" xmlns="http://www.w3.org/2000/svg">
<circle cx="225" cy="225" r="225" fill="white"/>
<path d="M75.0664 311.992C75.0647 312.525 75.436 313.248 76.18 314.157C76.9509 315.04 78.0943 316.139 79.6105 317.451C80.5948 318.282 81.6058 319.098 82.6434 319.903C83.7079 320.679 84.759 321.47 85.7967 322.274C86.2489 322.648 86.8341 323.144 87.5524 323.761C88.2706 324.35 89.1087 325.045 90.0664 325.849C90.7581 326.386 91.4765 326.922 92.2218 327.458C92.9935 327.993 93.8186 328.53 94.6971 329.066C95.2824 329.521 95.9344 330.017 96.6528 330.553C97.3713 331.09 98.1963 331.666 99.1279 332.282C99.6602 332.605 100.072 333.194 100.363 334.048C100.654 334.876 100.824 335.958 100.873 337.292L100.51 338.332L100.11 338.532C99.8429 338.53 99.4831 338.41 99.0305 338.168C98.6045 337.954 98.0588 337.631 97.3933 337.202C97.2602 337.121 96.6478 336.826 95.5559 336.316C94.4906 335.805 92.9461 335.081 90.9221 334.141C89.8034 333.657 88.7783 333.12 87.8467 332.529C86.9151 331.913 86.0636 331.271 85.2922 330.601C84.8401 330.199 84.2546 329.756 83.536 329.274C82.844 328.792 82.0189 328.268 81.0606 327.705C80.0754 327.142 79.2237 326.605 78.5051 326.096C77.7866 325.587 77.2145 325.158 76.7888 324.81C75.3522 323.631 74.1815 322.733 73.2766 322.117C72.3717 321.5 71.7459 321.191 71.3992 321.19C71.1314 321.563 70.9836 321.95 70.9558 322.35C70.6321 323.604 70.2808 325.19 69.9018 327.112C69.5495 329.006 69.1564 331.22 68.7222 333.755C68.7209 334.209 68.6399 334.542 68.4793 334.756C68.3186 334.995 68.0782 335.114 67.7582 335.114C66.7182 335.11 65.9322 334.854 65.4004 334.346C64.8685 333.837 64.6041 333.076 64.607 332.061C64.611 330.699 64.6952 329.273 64.8596 327.777C65.0507 326.284 65.3486 324.709 65.7535 323.056C65.8889 322.335 65.9842 321.694 66.0392 321.134C66.1209 320.548 66.1624 320.013 66.1639 319.534C66.1675 318.305 65.6372 317.25 64.5731 316.366C63.5356 315.482 63.0175 314.853 63.0186 314.48C63.0203 313.892 63.1018 313.385 63.263 312.959C63.451 312.505 63.7188 312.146 64.0662 311.88C64.9479 311.321 65.7628 310.79 66.511 310.286C66.698 310.179 66.8185 310.005 66.8725 309.766C66.9533 309.5 66.9944 309.139 66.9957 308.685C66.9965 308.419 66.9973 308.138 66.9982 307.845C66.9991 307.523 67 307.231 67.0008 306.963C67.0877 304.588 67.1617 302.12 67.2225 299.557C67.2231 299.37 67.2239 299.076 67.2251 298.676C67.2263 298.275 67.2011 297.755 67.1497 297.115C67.0977 296.634 67.0857 296.194 67.1135 295.793C67.1415 295.366 67.1559 294.979 67.157 294.632C66.9985 294.097 66.8532 293.644 66.7209 293.269C66.6154 292.869 66.5632 292.494 66.5642 292.147C66.5652 291.827 66.5933 291.334 66.6486 290.667C66.7039 289.973 66.732 289.479 66.7329 289.186C66.734 288.811 66.6955 288.29 66.6175 287.623C66.5661 286.956 66.5409 286.448 66.542 286.102C66.5448 285.14 66.7608 284.22 67.1901 283.34C67.646 282.462 68.3286 281.596 69.2378 280.745C70.12 280 71.015 279.441 71.9228 279.071C72.8573 278.673 73.8046 278.475 74.7646 278.479C75.2181 278.479 75.8845 278.521 76.7644 278.605C77.6709 278.661 78.3776 278.69 78.8843 278.691C79.2309 278.692 80.1767 278.987 81.7217 279.581C82.3349 279.635 82.8814 279.717 83.3611 279.825C83.8409 279.906 84.2273 280.002 84.5203 280.108C85.1861 280.431 85.7053 280.686 86.0781 280.873C86.451 281.035 86.7173 281.129 86.8774 281.156C87.3301 281.318 87.7165 281.453 88.0362 281.561C88.3826 281.669 88.6622 281.803 88.8751 281.963C89.2212 282.124 89.6207 282.313 90.0735 282.527C90.5528 282.742 91.0855 282.984 91.6714 283.253C92.63 283.737 93.5217 284.3 94.3466 284.942C95.198 285.586 95.996 286.281 96.7405 287.032C97.591 287.995 98.2282 288.944 98.6522 289.88C99.0763 290.789 99.2869 291.696 99.2842 292.605C99.2835 292.871 99.2557 293.258 99.2008 293.765C99.1728 294.245 99.1045 294.793 98.996 295.407C98.9138 296.18 98.5113 297.019 97.7886 297.925C97.066 298.804 96.0231 299.774 94.6599 300.839C93.4572 301.77 92.3348 302.554 91.2929 303.191C90.251 303.802 89.2897 304.239 88.4089 304.504C88.0614 304.744 87.7941 304.969 87.6069 305.182C87.3394 305.449 86.7782 305.821 85.9235 306.299C85.0688 306.776 83.907 307.373 82.4381 308.091C79.7675 309.39 77.8716 310.251 76.7503 310.676C75.6291 311.073 75.0677 311.511 75.0664 311.992ZM70.9228 292.681C71.4306 292.308 71.9117 291.95 72.366 291.605C72.8205 291.231 73.4077 291.047 74.1278 291.048C74.4478 291.05 74.8334 291.412 75.2846 292.133C75.7626 292.829 76.0011 293.35 76 293.697C75.9995 293.884 75.9316 294.311 75.7963 294.977C75.661 295.644 75.445 296.552 75.1483 297.699C74.5273 300.286 74.1759 301.913 74.0939 302.58C74.012 303.22 73.8357 304.234 73.565 305.621C73.4573 305.968 73.3493 306.422 73.241 306.982C73.2403 307.221 73.2798 307.396 73.3594 307.503C73.4658 307.61 73.599 307.664 73.759 307.664C79.0736 305.01 81.8245 303.63 82.0115 303.525C82.225 303.471 82.4519 303.406 82.6921 303.326C82.9324 303.22 83.1594 303.113 83.3731 303.008L83.9752 302.248C85.525 301.265 87.1281 300.216 88.7848 299.099C89.8271 298.303 90.6028 297.517 91.1117 296.745C91.6207 295.971 91.8763 295.199 91.8786 294.424C91.8815 293.437 91.311 292.46 90.1671 291.497C89.0232 290.532 87.3058 289.606 85.015 288.718C83.0705 287.939 81.2988 287.373 79.6998 287.021C78.1008 286.644 76.648 286.452 75.3414 286.448C73.6346 286.443 72.3403 286.746 71.4585 287.357C70.6034 287.942 70.1741 288.822 70.1707 289.996C70.168 290.903 70.2326 291.598 70.3646 292.079C70.4966 292.532 70.6827 292.733 70.9228 292.681ZM97.5562 322.588C97.8779 322.029 98.2928 321.47 98.8011 320.91C99.3096 320.325 99.9513 319.726 100.726 319.114C100.808 318.581 100.89 318.06 100.971 317.553C101.053 317.02 101.108 316.486 101.136 315.953C101.217 315.579 101.338 315.139 101.5 314.633C101.688 314.126 101.89 313.579 102.105 312.993C102.346 312.407 102.668 311.673 103.071 310.793C103.5 309.914 104.05 308.927 104.72 307.835C105.282 307.223 105.87 306.557 106.486 305.838C107.101 305.092 107.717 304.347 108.332 303.601C108.626 303.362 108.947 303.136 109.294 302.923C109.642 302.711 109.989 302.472 110.337 302.206C110.657 302.101 111.017 302.008 111.417 301.93C111.818 301.85 112.258 301.811 112.738 301.812C113.404 301.815 113.938 301.883 114.337 302.017C114.764 302.152 115.11 302.381 115.375 302.702C115.561 302.915 115.734 303.236 115.892 303.664C116.078 304.092 116.25 304.612 116.408 305.227C116.486 305.76 116.578 306.348 116.683 306.989C116.683 306.829 116.63 306.896 116.522 307.189C116.441 307.482 116.307 307.95 116.118 308.589L115.754 309.87C115.377 311.149 114.533 312.629 113.221 314.306C111.91 315.984 110.144 317.901 107.924 320.057C107.737 320.243 107.576 320.482 107.442 320.776C107.308 321.043 107.24 321.336 107.239 321.656C107.238 322.216 107.33 322.711 107.515 323.139C107.727 323.565 108.02 323.887 108.392 324.102C108.605 324.262 108.938 324.424 109.391 324.585C109.87 324.746 110.43 324.895 111.07 325.03C112.11 324.954 113.057 324.783 113.911 324.518C114.765 324.254 115.526 323.936 116.194 323.564C116.328 323.485 116.541 323.378 116.835 323.246C117.129 323.087 117.423 322.888 117.717 322.648C118.061 323.423 118.366 324.118 118.631 324.733C118.896 325.348 119.107 325.882 119.266 326.336C117.742 327.827 116.352 328.957 115.096 329.728C113.867 330.471 112.733 330.842 111.693 330.839C111.265 331.104 110.771 331.302 110.211 331.435C109.677 331.54 109.037 331.59 108.29 331.589C107.304 331.586 106.424 331.436 105.651 331.141C104.906 330.844 104.28 330.416 103.775 329.853C103.509 329.586 103.244 329.199 102.979 328.69C102.713 328.156 102.435 327.527 102.144 326.806C101.906 326.218 101.68 325.79 101.468 325.522C101.255 325.229 101.016 325.081 100.749 325.081C100.536 325.08 100.295 325.186 100.028 325.398C99.7609 325.584 99.4666 325.878 99.1455 326.277C99.0399 325.876 98.8548 325.382 98.5898 324.794C98.3249 324.206 97.9803 323.471 97.5562 322.588ZM110.395 309.613C109.808 309.612 109.019 310.384 108.028 311.928C107.037 313.448 106.54 314.567 106.538 315.287C106.538 315.447 106.564 315.568 106.617 315.648C106.697 315.702 106.843 315.729 107.057 315.73C107.35 315.73 107.591 315.584 107.778 315.292C107.966 314.972 108.14 314.678 108.301 314.411C108.595 314.146 108.876 313.866 109.143 313.574C109.437 313.254 109.718 312.948 109.986 312.655C110.307 312.282 110.548 311.909 110.709 311.536C110.87 311.163 110.951 310.79 110.953 310.415C110.953 310.176 110.9 309.989 110.794 309.855C110.715 309.695 110.582 309.614 110.395 309.613ZM117.717 322.648C117.824 322.461 117.971 322.262 118.159 322.048C118.319 321.809 118.52 321.529 118.761 321.209C119.404 320.277 119.94 319.478 120.368 318.812C120.797 318.119 121.105 317.586 121.293 317.213C121.668 316.52 121.964 315.8 122.179 315.054C122.422 314.306 122.61 313.533 122.746 312.733C123.291 308.917 124.236 304.823 125.582 300.45C126.929 296.075 128.636 291.369 130.704 286.331C131.456 284.57 132.26 283.251 133.116 282.374C133.972 281.468 134.853 281.017 135.76 281.02C136.453 281.022 137.013 281.17 137.439 281.465C137.864 281.733 138.143 282.175 138.275 282.79C138.327 283.03 138.366 283.443 138.391 284.03C138.443 284.618 138.467 285.379 138.464 286.313C138.464 286.527 138.245 288.435 137.808 292.036C137.376 293.824 136.769 296.052 135.988 298.718C135.207 301.358 134.238 304.425 133.081 307.918C132.813 308.398 132.504 309.012 132.155 309.758C131.806 310.504 131.377 311.397 130.867 312.437C130.787 312.623 130.693 312.877 130.585 313.196C130.504 313.49 130.383 313.822 130.222 314.197C130.035 314.383 129.821 314.689 129.579 315.115C129.365 315.542 129.11 316.075 128.815 316.714C128.33 318.208 127.858 320.089 127.398 322.356C126.965 324.623 126.557 327.305 126.175 330.4C125.793 333.308 125.505 335.897 125.312 338.165C125.118 340.46 125.019 342.449 125.014 344.13C125.039 344.771 125.09 345.439 125.168 346.133C125.246 346.96 125.324 347.587 125.403 348.015C125.508 348.469 125.641 348.697 125.801 348.697C126.174 348.698 126.75 347.873 127.528 346.219C128.333 344.594 129.367 342.141 130.63 338.861L130.512 338.06C130.62 337.821 130.767 337.514 130.955 337.141C131.169 336.767 131.344 336.288 131.479 335.701C132.152 333.568 132.65 331.914 132.974 330.74C133.297 329.54 133.499 328.86 133.58 328.7C133.956 327.634 134.439 326.594 135.029 325.581C135.645 324.569 136.328 323.61 137.078 322.704C137.475 323.507 137.793 324.215 138.031 324.83C138.269 325.445 138.481 325.965 138.667 326.393C138.292 326.873 137.93 327.485 137.581 328.231C137.232 328.951 136.95 329.751 136.734 330.631C136.492 331.379 136.276 332.152 136.087 332.952C135.925 333.725 135.75 334.473 135.561 335.193C134.213 340.287 132.893 344.514 131.603 347.873C130.313 351.26 129.093 353.778 127.941 355.431C127.753 355.776 127.526 356.122 127.258 356.469C127.017 356.815 126.789 357.149 126.575 357.468C126.254 357.814 125.92 358.081 125.573 358.266C125.225 358.478 124.865 358.584 124.492 358.584C123.345 358.579 122.426 358.324 121.734 357.814C121.069 357.304 120.604 356.543 120.34 355.528C120.21 354.673 120.092 353.819 119.988 352.964C119.91 352.137 119.82 351.309 119.715 350.481C119.557 349.946 119.439 349.386 119.36 348.798C119.282 348.238 119.244 347.611 119.246 346.916L119.264 340.831C119.264 340.537 119.319 340.083 119.428 339.469C119.563 338.856 119.631 338.388 119.632 338.068C119.474 337.268 119.316 336.453 119.159 335.625C119.242 334.691 119.378 333.516 119.569 332.103C119.787 330.688 120.045 329.074 120.343 327.26L119.306 326.336C119.201 325.989 119.015 325.507 118.75 324.892C118.485 324.279 118.141 323.53 117.717 322.648ZM133.556 295.788C133.396 295.788 133.276 295.894 133.195 296.108C133.142 296.294 133.047 296.574 132.913 296.947C132.886 297.215 132.791 297.574 132.63 298.028C132.468 298.48 132.253 299.054 131.985 299.747C131.77 300.333 131.595 300.854 131.46 301.308C131.352 301.734 131.298 302.081 131.297 302.348L131.576 302.669L132.178 302.07C132.206 301.67 132.314 301.23 132.502 300.75C132.69 300.269 132.945 299.724 133.267 299.11C133.535 298.551 133.736 298.07 133.871 297.671C134.005 297.271 134.073 296.937 134.074 296.671C134.075 296.35 134.035 296.123 133.956 295.989C133.876 295.856 133.743 295.788 133.556 295.788ZM137.078 322.704C137.265 322.519 137.465 322.279 137.68 321.986C137.867 321.666 138.095 321.32 138.363 320.947L141.449 318.834C141.824 318.382 142.399 317.809 143.174 317.117C143.95 316.399 144.912 315.534 146.062 314.524C146.196 314.23 146.41 313.896 146.705 313.524C147.026 313.124 147.4 312.739 147.828 312.366C148.203 312.02 148.577 311.701 148.951 311.409C149.325 311.089 149.673 310.783 149.994 310.49C150.395 310.091 150.77 309.692 151.117 309.293C151.492 308.893 151.866 308.507 152.241 308.134C152.669 307.763 153.11 307.47 153.564 307.258C154.018 307.045 154.511 306.94 155.044 306.943C155.631 306.944 156.071 307.025 156.364 307.186C156.683 307.321 156.856 307.521 156.882 307.789C156.614 308.401 156.332 309.015 156.037 309.628L156.276 309.989C157.45 309.538 158.371 309.207 159.039 308.995C159.706 308.784 160.133 308.678 160.32 308.68C162.266 308.685 163.718 309.289 164.675 310.493C165.658 311.671 166.146 313.462 166.139 315.863C166.138 316.317 166.083 316.851 165.974 317.465C165.866 318.078 165.69 318.745 165.448 319.465C165.179 320.265 164.884 320.932 164.562 321.465C164.267 321.998 163.986 322.383 163.719 322.622C163.825 322.97 163.944 323.224 164.077 323.385C164.21 323.519 164.383 323.586 164.596 323.586C164.809 323.587 165.023 323.52 165.237 323.388C165.477 323.255 165.758 323.056 166.079 322.79C166.343 323.378 166.595 323.993 166.833 324.634C167.098 325.249 167.363 325.863 167.628 326.478C167.146 326.904 166.679 327.316 166.224 327.715C165.77 328.114 165.288 328.5 164.781 328.872C164.166 329.378 163.578 329.75 163.017 329.987C162.483 330.201 161.95 330.306 161.416 330.303C160.803 330.302 160.297 330.154 159.897 329.859C159.498 329.564 159.18 329.15 158.941 328.615C158.272 329.494 157.456 330.306 156.494 331.049C155.558 331.768 154.517 332.365 153.368 332.842C152.701 333.161 152.087 333.412 151.526 333.598C150.992 333.757 150.499 333.835 150.045 333.833C149.912 333.833 149.645 333.886 149.245 333.992C148.871 334.097 148.564 334.15 148.324 334.149C146.804 334.145 145.433 333.5 144.21 332.215C142.987 330.93 142.378 329.501 142.382 327.925C142.384 327.285 142.533 326.445 142.83 325.405C143.126 324.338 143.275 323.71 143.275 323.524C143.276 323.337 143.21 323.19 143.077 323.083C142.97 322.949 142.811 322.882 142.597 322.881C142.464 322.881 142.143 323.08 141.635 323.479C141.128 323.878 140.406 324.45 139.47 325.194C139.39 325.301 139.296 325.461 139.189 325.674C139.082 325.887 138.908 326.127 138.667 326.393C138.455 325.778 138.217 325.164 137.952 324.549C137.687 323.907 137.396 323.293 137.078 322.704ZM156.34 315.434C156.206 315.461 156.006 315.607 155.738 315.872C155.498 316.113 155.257 316.419 155.016 316.792C154.64 317.404 154.212 318.07 153.73 318.79C153.435 319.109 153.115 319.362 152.767 319.547C152.447 319.707 152.073 319.826 151.646 319.904C151.38 319.93 151.099 320.197 150.804 320.704C150.509 321.183 150.214 321.888 149.918 322.822C149.622 323.649 149.407 324.355 149.271 324.943C149.136 325.529 149.068 326.023 149.067 326.423C149.065 327.171 149.25 327.732 149.622 328.107C149.994 328.481 150.567 328.67 151.341 328.673C152.567 328.677 153.688 328.346 154.704 327.682C155.746 326.99 156.722 325.965 157.633 324.607C158.061 324.101 158.462 323.621 158.837 323.169C159.051 323.009 159.225 322.756 159.359 322.409C159.494 322.036 159.628 321.584 159.763 321.049L160.49 318.77C160.252 317.968 160.028 317.34 159.816 316.885C159.604 316.404 159.391 316.11 159.178 316.004C159.045 315.923 158.752 315.841 158.299 315.76C157.846 315.652 157.193 315.543 156.34 315.434ZM166.039 322.79C166.467 322.23 166.895 321.645 167.324 321.032C169.275 319.437 170.866 317.906 172.097 316.441C173.355 314.95 174.266 313.565 174.83 312.285L174.435 310.362C174.784 309.696 175.64 308.911 177.002 308.007C178.392 307.104 179.513 306.654 180.366 306.656C181.273 306.658 182.032 306.928 182.644 307.463C183.283 307.999 183.894 308.562 184.479 309.151C184.772 309.338 184.985 309.486 185.118 309.593C186.182 310.396 186.979 311.507 187.508 312.923C188.037 314.339 188.299 316.062 188.293 318.091C188.29 319.158 187.872 320.691 187.04 322.692C186.207 324.664 185.789 326.158 185.787 327.172C185.786 327.306 185.826 327.413 185.906 327.493C186.012 327.574 186.145 327.613 186.305 327.613C186.652 327.615 187.066 327.47 187.546 327.178C188.028 326.859 188.549 326.433 189.11 325.901C190.528 324.517 191.383 323.758 191.677 323.626C191.971 323.467 192.332 323.214 192.759 322.868C192.971 323.403 193.223 323.978 193.514 324.592C193.806 325.207 194.084 325.861 194.349 326.557C194.108 326.769 193.827 327.022 193.506 327.316C193.212 327.608 192.851 327.94 192.423 328.313C191.515 328.977 190.326 329.788 188.856 330.744C187.413 331.675 185.677 332.751 183.646 333.973C183.112 334.318 182.498 334.596 181.804 334.808C180.684 334.805 179.844 334.642 179.285 334.32C178.726 333.971 178.448 333.423 178.45 332.676C178.451 332.382 178.505 332.048 178.613 331.675C178.747 331.276 178.922 330.848 179.137 330.396C179.298 330.049 179.472 329.703 179.66 329.356C179.847 328.983 180.009 328.61 180.143 328.237C180.735 326.557 181.179 324.996 181.477 323.556C181.801 322.115 181.965 320.821 181.968 319.673C181.972 318.259 181.749 317.178 181.298 316.429C180.873 315.68 180.221 315.251 179.341 315.141C178.754 315.46 178.112 315.912 177.417 316.497C176.722 317.082 176.013 317.814 175.291 318.693C174.515 319.651 173.819 320.437 173.204 321.049C172.589 321.662 172.081 322.073 171.68 322.286C171.439 322.685 171.051 323.138 170.516 323.643C169.981 324.149 169.273 324.694 168.391 325.279C168.338 325.386 168.257 325.546 168.15 325.759C168.043 325.972 167.869 326.211 167.628 326.478C167.416 325.864 167.178 325.263 166.913 324.674C166.648 324.06 166.357 323.431 166.039 322.79ZM192.759 322.868C192.92 322.683 193.107 322.442 193.322 322.15C193.536 321.83 193.777 321.484 194.045 321.111C195.222 319.646 196.359 318.341 197.456 317.197C198.579 316.025 199.636 314.988 200.626 314.083C201.134 313.604 201.748 312.991 202.471 312.247C203.193 311.474 204.035 310.596 204.999 309.612C205.959 309.24 207.015 308.816 208.163 308.339C208.883 308.342 209.415 308.584 209.76 309.065C210.106 309.52 210.278 310.187 210.275 311.069C210.272 311.816 210.203 312.629 210.068 313.509C209.958 314.364 209.796 315.244 209.58 316.151C209.337 316.871 209.135 317.564 208.974 318.231C208.973 318.419 209.012 318.565 209.093 318.673C209.172 318.752 209.306 318.793 209.491 318.793C209.893 318.608 210.668 317.943 211.818 316.799C212.968 315.654 214.479 314.057 216.353 312.007C217.957 310.25 219.362 308.946 220.563 308.096C221.766 307.219 222.728 306.78 223.448 306.783C224.221 306.785 224.78 307.081 225.125 307.668C225.497 308.23 225.681 309.072 225.678 310.193C225.673 311.82 225.548 313.396 225.304 314.916C225.06 316.411 224.642 317.85 224.052 319.237C223.944 319.504 223.877 319.731 223.85 319.916C223.823 320.104 223.809 320.277 223.808 320.437C223.808 320.624 223.967 320.798 224.287 320.959C224.5 320.773 224.741 320.507 225.009 320.161C225.303 319.814 225.637 319.375 226.013 318.842C226.627 318.337 227.243 317.831 227.857 317.327C228.472 316.821 229.141 316.302 229.862 315.77C230.61 315.185 231.372 314.748 232.146 314.455C232.92 314.138 233.681 313.98 234.428 313.982C234.56 313.982 234.694 314.023 234.826 314.104C234.96 314.183 235.092 314.278 235.226 314.384C235.838 314.92 236.343 315.416 236.742 315.871C237.141 316.299 237.419 316.673 237.579 316.994C238.612 319.133 239.527 320.736 240.325 321.807C241.148 322.851 241.866 323.373 242.481 323.375C242.613 323.375 242.747 323.349 242.881 323.296C243.014 323.217 243.147 323.124 243.281 323.017C243.891 324.327 244.407 325.557 244.83 326.705C243.868 327.449 243.013 328.021 242.265 328.42C241.518 328.79 240.864 328.976 240.303 328.975C238.464 328.969 236.56 327.775 234.594 325.394C232.654 322.986 231.164 321.781 230.124 321.776C228.738 321.772 226.425 323.821 223.186 327.922C219.948 331.998 217.928 334.033 217.128 334.031C216.728 334.03 216.194 333.988 215.528 333.906C215.315 333.825 215.155 333.665 215.05 333.425C214.943 333.157 214.892 332.851 214.892 332.503C214.893 332.103 214.975 331.582 215.136 330.943C215.298 330.276 215.514 329.502 215.783 328.622C216.134 327.501 216.417 326.608 216.631 325.942C216.847 325.275 216.968 324.808 216.996 324.541C217.076 324.194 217.185 323.513 217.322 322.501C217.484 321.487 217.688 320.139 217.934 318.458C217.934 318.164 217.854 317.937 217.695 317.776C217.536 317.616 217.349 317.536 217.136 317.534C216.949 317.534 216.736 317.6 216.496 317.732C216.282 317.839 216.028 318.025 215.734 318.291C215.413 318.637 215.051 318.983 214.651 319.329C214.276 319.674 213.661 320.166 212.807 320.805C211.87 321.871 210.906 322.961 209.916 324.081C208.954 325.171 207.964 326.277 206.946 327.395C205.341 329.259 204.057 330.642 203.095 331.547C202.158 332.426 201.557 332.864 201.291 332.863C200.491 332.861 199.878 332.766 199.452 332.577C199.052 332.39 198.852 332.108 198.854 331.735C198.857 330.854 199.328 329.027 200.27 326.254C201.238 323.453 201.724 321.48 201.727 320.332C201.728 320.146 201.661 319.998 201.529 319.892C201.422 319.758 201.276 319.691 201.089 319.69C200.769 319.688 200.382 319.874 199.927 320.247C199.5 320.593 199.005 321.152 198.443 321.924C198.067 322.35 197.613 322.842 197.078 323.401C196.543 323.96 195.888 324.612 195.112 325.357C195.032 325.572 194.924 325.785 194.79 325.998C194.656 326.184 194.509 326.37 194.349 326.557C194.243 326.157 194.058 325.662 193.793 325.074C193.528 324.485 193.183 323.75 192.759 322.868Z" fill="url(#paint0_radial_1871_6175)"/>
<path d="M182.498 349.815C183.111 349.174 184.045 348.401 185.298 347.493C186.578 346.586 187.525 345.838 188.138 345.25C188.538 344.771 189.058 344.197 189.698 343.53C190.338 342.835 191.098 342.021 191.978 341.086C192.512 340.606 193.032 340.232 193.538 339.965C194.045 339.699 194.552 339.565 195.058 339.565C195.698 339.565 196.192 339.725 196.539 340.046C196.912 340.366 197.099 340.873 197.099 341.567C197.099 342.609 196.699 344.29 195.898 346.612C195.098 348.935 194.698 350.697 194.698 351.898C194.698 352.164 194.752 352.352 194.858 352.458C194.992 352.565 195.139 352.618 195.299 352.618L195.499 352.578C196.005 352.257 196.592 351.857 197.259 351.377C197.952 350.87 198.725 350.255 199.578 349.535C200.272 348.894 201.125 348.053 202.139 347.012C203.179 345.972 204.393 344.771 205.779 343.409C206.313 342.982 206.912 342.435 207.58 341.767C208.272 341.1 209.046 340.299 209.899 339.366C210.246 338.884 210.725 338.511 211.339 338.243C211.979 337.977 212.753 337.843 213.66 337.843C214.273 337.843 214.726 337.963 215.02 338.204C215.339 338.417 215.499 338.751 215.499 339.204C215.499 339.391 215.473 339.579 215.42 339.766C215.392 339.926 215.366 340.086 215.339 340.246C215.152 341.047 214.872 342.035 214.499 343.209C214.125 344.357 213.672 345.718 213.139 347.292C212.686 348.28 212.206 349.468 211.699 350.856C211.22 352.218 210.7 353.725 210.14 355.38L210.42 355.741C210.979 355.474 211.805 354.847 212.899 353.859C214.019 352.845 215.42 351.497 217.099 349.815L218.699 353.498C218.486 353.713 218.219 353.979 217.899 354.299C217.606 354.593 217.206 354.914 216.699 355.261C213.845 357.289 211.392 359.304 209.34 361.306C207.312 363.282 205.699 365.243 204.499 367.192C202.712 370.128 201.218 372.517 200.018 374.359C198.845 376.201 197.992 377.496 197.459 378.243C195.618 380.672 193.872 382.474 192.218 383.648C190.565 384.822 188.952 385.41 187.378 385.41C186.791 385.41 186.365 385.29 186.098 385.049C185.831 384.81 185.698 384.435 185.698 383.928C185.698 383.662 185.765 383.328 185.898 382.928C186.032 382.528 186.271 382.1 186.618 381.646C187.125 380.926 187.591 380.178 188.018 379.405L189.218 378.363C189.325 378.016 189.378 377.776 189.378 377.642C189.485 377.509 189.632 377.349 189.818 377.162C190.032 376.975 190.272 376.762 190.538 376.521C190.725 376.041 191.218 375.241 192.018 374.118C192.845 373.025 193.992 371.609 195.459 369.875C196.552 368.593 197.552 367.446 198.459 366.431C199.365 365.444 200.138 364.602 200.779 363.909C200.885 363.695 200.992 363.442 201.098 363.148C201.232 362.854 201.338 362.561 201.419 362.267C201.766 361.574 202.139 360.732 202.539 359.745C202.966 358.757 203.473 357.595 204.058 356.262C204.326 355.488 204.553 354.607 204.738 353.618C204.925 352.604 205.099 351.51 205.258 350.336C205.205 350.229 205.166 350.095 205.138 349.935C205.138 349.748 205.085 349.495 204.979 349.174C204.499 349.415 203.965 349.775 203.378 350.255C202.819 350.736 202.205 351.297 201.539 351.937C200.658 353.085 199.766 354.046 198.859 354.82C197.952 355.567 197.058 356.141 196.179 356.542C195.592 357.69 194.832 358.544 193.898 359.104C192.992 359.639 191.938 359.905 190.738 359.905C189.858 359.905 189.192 359.704 188.738 359.304C188.285 358.877 188.058 358.236 188.058 357.382C188.058 357.222 188.072 357.023 188.098 356.782C188.152 356.542 188.218 356.262 188.298 355.942C188.192 355.674 188.058 355.301 187.898 354.82C188.005 354.366 188.098 353.859 188.178 353.299C188.178 352.498 188.112 351.898 187.978 351.497C187.872 351.097 187.685 350.896 187.418 350.896L187.258 350.977C186.965 351.19 186.551 351.51 186.018 351.937C185.485 352.364 184.845 352.885 184.098 353.498C183.965 353.152 183.805 352.738 183.618 352.257C183.405 351.778 183.191 351.217 182.978 350.576C182.925 350.416 182.858 350.269 182.778 350.135C182.698 350.002 182.605 349.896 182.498 349.815ZM217.059 349.815C217.247 349.628 217.446 349.389 217.659 349.095C217.846 348.774 218.073 348.428 218.339 348.053L221.419 345.931C221.793 345.477 222.367 344.903 223.14 344.21C223.912 343.489 224.874 342.621 226.019 341.607C226.153 341.313 226.366 340.98 226.66 340.606C226.979 340.206 227.353 339.819 227.779 339.445C228.153 339.098 228.526 338.778 228.9 338.484C229.273 338.164 229.62 337.857 229.939 337.563C230.339 337.162 230.713 336.762 231.06 336.362C231.433 335.961 231.807 335.574 232.18 335.201C232.607 334.827 233.047 334.533 233.5 334.32C233.953 334.107 234.446 334 234.98 334C235.567 334 236.007 334.079 236.3 334.241C236.62 334.373 236.793 334.574 236.821 334.84C236.553 335.454 236.273 336.069 235.98 336.683L236.22 337.042C237.393 336.588 238.313 336.255 238.981 336.042C239.647 335.829 240.073 335.722 240.26 335.722C242.207 335.722 243.66 336.322 244.62 337.523C245.607 338.697 246.1 340.486 246.1 342.889C246.1 343.343 246.047 343.876 245.94 344.491C245.834 345.104 245.66 345.771 245.42 346.491C245.154 347.292 244.86 347.96 244.541 348.493C244.247 349.028 243.967 349.415 243.701 349.655C243.807 350.002 243.928 350.255 244.06 350.416C244.194 350.549 244.367 350.616 244.58 350.616C244.793 350.616 245.008 350.549 245.221 350.416C245.461 350.282 245.741 350.082 246.06 349.815C246.327 350.403 246.58 351.016 246.821 351.657C247.087 352.271 247.353 352.885 247.621 353.498C247.14 353.926 246.673 354.34 246.22 354.741C245.767 355.141 245.287 355.528 244.781 355.901C244.166 356.408 243.581 356.782 243.021 357.023C242.487 357.236 241.953 357.343 241.421 357.343C240.806 357.343 240.3 357.196 239.9 356.903C239.5 356.609 239.18 356.195 238.94 355.66C238.273 356.542 237.46 357.356 236.5 358.104C235.567 358.824 234.527 359.424 233.38 359.905C232.714 360.225 232.099 360.479 231.539 360.666C231.007 360.826 230.513 360.906 230.059 360.906C229.927 360.906 229.659 360.959 229.259 361.067C228.886 361.173 228.579 361.227 228.34 361.227C226.819 361.227 225.446 360.586 224.22 359.304C222.993 358.023 222.379 356.595 222.379 355.021C222.379 354.38 222.526 353.539 222.82 352.498C223.112 351.43 223.26 350.803 223.26 350.616C223.26 350.429 223.193 350.282 223.059 350.176C222.952 350.042 222.793 349.975 222.58 349.975C222.446 349.975 222.126 350.176 221.62 350.576C221.113 350.977 220.392 351.551 219.46 352.298C219.379 352.405 219.286 352.565 219.18 352.778C219.072 352.991 218.9 353.232 218.66 353.498C218.445 352.885 218.206 352.271 217.939 351.657C217.673 351.016 217.379 350.403 217.059 349.815ZM236.3 342.488C236.167 342.514 235.967 342.662 235.7 342.928C235.459 343.169 235.22 343.475 234.98 343.85C234.606 344.463 234.18 345.13 233.699 345.852C233.407 346.172 233.086 346.426 232.74 346.612C232.42 346.773 232.046 346.892 231.62 346.972C231.354 347 231.074 347.266 230.78 347.773C230.487 348.254 230.193 348.961 229.9 349.896C229.606 350.723 229.393 351.43 229.259 352.017C229.127 352.604 229.06 353.098 229.06 353.498C229.06 354.246 229.247 354.806 229.62 355.181C229.994 355.554 230.566 355.741 231.34 355.741C232.566 355.741 233.687 355.407 234.7 354.741C235.741 354.046 236.713 353.019 237.619 351.657C238.047 351.15 238.447 350.669 238.82 350.215C239.034 350.056 239.207 349.801 239.34 349.454C239.474 349.081 239.607 348.627 239.74 348.093L240.461 345.811C240.221 345.011 239.994 344.384 239.779 343.929C239.566 343.449 239.353 343.155 239.14 343.049C239.007 342.968 238.713 342.889 238.26 342.808C237.806 342.702 237.154 342.595 236.3 342.488ZM246.021 349.815C246.127 349.736 246.22 349.642 246.301 349.535C246.354 349.428 246.38 349.294 246.38 349.134C246.834 348.761 247.341 348.254 247.901 347.613C248.487 346.946 249.141 346.172 249.86 345.291C250.447 344.491 251.047 343.69 251.661 342.889C252.3 342.088 252.98 341.287 253.701 340.486C254.287 339.685 254.86 338.858 255.421 338.004C256.007 337.123 256.62 336.269 257.26 335.442C258.327 334.933 259.154 334.574 259.741 334.361C260.327 334.146 260.727 334.04 260.942 334.04C261.342 334.04 261.647 334.174 261.86 334.44C262.075 334.681 262.181 335.041 262.181 335.521C262.181 335.681 262.14 335.908 262.061 336.202C261.981 336.496 261.888 336.815 261.781 337.162C261.594 337.697 261.381 338.243 261.141 338.804C260.928 339.739 260.674 340.673 260.38 341.607C260.088 342.542 259.807 343.463 259.541 344.37C259.274 345.518 259.061 346.572 258.9 347.533C258.768 348.493 258.701 349.375 258.701 350.176C258.701 351.671 258.768 352.778 258.9 353.498C259.061 354.22 259.274 354.54 259.541 354.46C259.807 354.299 260.141 354.113 260.542 353.899C260.942 353.659 261.407 353.392 261.941 353.098C262.422 352.591 262.954 351.963 263.541 351.217C264.154 350.47 264.888 349.588 265.741 348.574C266.222 347.827 266.714 347.093 267.221 346.372C267.408 346.158 267.621 345.905 267.861 345.611C268.128 345.317 268.368 345.024 268.581 344.73C269.087 343.449 269.647 342.502 270.262 341.887C270.901 341.247 271.608 340.926 272.381 340.926C273.074 340.926 273.622 341.021 274.022 341.206C274.448 341.366 274.742 341.621 274.901 341.968C274.982 342.155 275.049 342.475 275.102 342.928C275.155 343.382 275.181 343.983 275.181 344.73C275.181 345.024 275.234 345.451 275.341 346.012C275.475 346.572 275.542 346.986 275.542 347.253C275.542 348.241 275.715 348.988 276.062 349.495C276.409 349.975 276.941 350.215 277.662 350.215C277.875 350.215 278.128 350.176 278.421 350.095C278.715 350.016 279.008 349.922 279.302 349.815L280.902 353.498C279.302 354.46 277.982 355.194 276.941 355.701C275.928 356.181 275.168 356.422 274.661 356.422C273.328 356.422 272.235 356.074 271.381 355.38C270.528 354.687 269.901 353.66 269.501 352.298C269.448 351.977 269.328 351.657 269.141 351.336C268.981 351.016 268.768 350.697 268.502 350.375C268.261 350.643 267.982 350.963 267.661 351.336C267.368 351.711 267.048 352.084 266.701 352.458C265.981 353.338 265.262 354.206 264.541 355.06C263.821 355.887 263.088 356.715 262.341 357.542C261.407 358.637 260.461 359.438 259.501 359.945C258.567 360.426 257.688 360.666 256.86 360.666C255.634 360.666 254.647 360.306 253.9 359.585C253.153 358.838 252.674 357.743 252.461 356.301C252.221 354.914 252.061 353.833 251.981 353.058C251.9 352.285 251.888 351.817 251.941 351.657C251.888 350.882 251.807 350.296 251.701 349.896C251.62 349.495 251.488 349.294 251.301 349.294L251.06 349.415L248.78 351.778C248.701 351.963 248.567 352.204 248.38 352.498C248.194 352.764 247.94 353.098 247.621 353.498C247.514 353.098 247.327 352.604 247.061 352.017C246.793 351.43 246.447 350.697 246.021 349.815ZM279.302 349.815C279.728 349.255 280.155 348.667 280.581 348.053C282.528 346.452 284.115 344.917 285.342 343.449C286.596 341.954 287.502 340.567 288.062 339.285L287.662 337.363C288.009 336.696 288.862 335.908 290.222 335C291.608 334.093 292.729 333.639 293.582 333.639C294.489 333.639 295.248 333.907 295.863 334.44C296.502 334.974 297.116 335.535 297.702 336.122C297.995 336.308 298.208 336.456 298.342 336.562C299.409 337.363 300.209 338.47 300.743 339.886C301.276 341.301 301.543 343.021 301.543 345.051C301.543 346.118 301.129 347.653 300.303 349.655C299.475 351.63 299.062 353.125 299.062 354.139C299.062 354.273 299.103 354.38 299.182 354.46C299.288 354.54 299.422 354.579 299.582 354.579C299.929 354.579 300.342 354.433 300.823 354.139C301.302 353.819 301.823 353.392 302.382 352.859C303.796 351.47 304.649 350.709 304.942 350.576C305.236 350.416 305.596 350.162 306.022 349.815C306.235 350.349 306.489 350.923 306.783 351.537C307.077 352.151 307.356 352.805 307.623 353.498C307.382 353.713 307.102 353.966 306.783 354.259C306.489 354.553 306.129 354.887 305.703 355.261C304.796 355.928 303.61 356.741 302.142 357.703C300.703 358.637 298.969 359.718 296.943 360.947C296.409 361.294 295.796 361.574 295.102 361.787C293.983 361.787 293.143 361.627 292.582 361.306C292.022 360.959 291.742 360.412 291.742 359.665C291.742 359.371 291.795 359.037 291.902 358.664C292.035 358.264 292.209 357.836 292.422 357.382C292.582 357.035 292.755 356.688 292.942 356.342C293.129 355.968 293.289 355.595 293.423 355.22C294.008 353.539 294.449 351.977 294.742 350.535C295.063 349.095 295.222 347.801 295.222 346.653C295.222 345.238 294.996 344.157 294.542 343.409C294.115 342.662 293.462 342.234 292.582 342.128C291.996 342.449 291.356 342.902 290.662 343.489C289.968 344.076 289.262 344.81 288.541 345.692C287.769 346.653 287.075 347.44 286.462 348.053C285.849 348.667 285.342 349.081 284.942 349.294C284.702 349.695 284.316 350.149 283.782 350.656C283.248 351.163 282.542 351.711 281.661 352.298C281.608 352.405 281.529 352.565 281.422 352.778C281.314 352.991 281.141 353.232 280.902 353.498C280.688 352.885 280.449 352.285 280.181 351.697C279.915 351.083 279.621 350.456 279.302 349.815ZM306.022 349.815L306.263 349.535C306.369 349.162 306.61 348.761 306.982 348.334C307.329 347.907 307.836 347.479 308.503 347.053C309.383 346.491 310.063 346.038 310.543 345.692C311.05 345.345 311.356 345.09 311.462 344.931C311.702 344.637 311.862 344.41 311.943 344.25C312.236 344.037 312.597 343.743 313.023 343.368C313.45 342.995 313.929 342.542 314.463 342.007C314.649 341.875 314.85 341.66 315.063 341.366C315.276 341.074 315.49 340.74 315.703 340.366C316.05 340.125 316.436 339.819 316.864 339.445C317.317 339.072 317.836 338.591 318.423 338.004C319.089 337.283 319.836 336.496 320.663 335.641C321.517 334.761 322.463 333.852 323.503 332.919C323.85 332.759 324.17 332.639 324.463 332.558C324.783 332.452 325.09 332.398 325.384 332.398C326.584 332.398 327.477 332.692 328.064 333.28C328.677 333.84 328.984 334.653 328.984 335.722C328.984 335.988 328.93 336.429 328.823 337.042C328.744 337.657 328.65 338.431 328.543 339.366C328.17 342.061 327.904 343.702 327.743 344.29C327.583 344.877 327.023 346.72 326.064 349.815C325.851 350.322 325.624 350.949 325.384 351.697C325.171 352.445 324.903 353.352 324.584 354.419C324.637 354.526 324.771 354.634 324.984 354.741C325.171 354.741 325.504 354.567 325.983 354.22C326.464 353.845 327.104 353.299 327.904 352.578C328.837 351.724 329.57 351.07 330.104 350.616C330.636 350.162 330.971 349.896 331.103 349.815C331.424 350.535 331.716 351.204 331.984 351.817C332.25 352.405 332.477 352.965 332.664 353.498C332.317 353.713 331.998 353.952 331.704 354.22C331.436 354.486 331.184 354.78 330.943 355.1C330.384 355.474 329.73 355.901 328.984 356.382C328.263 356.862 327.463 357.382 326.584 357.943C326.184 358.343 325.636 358.838 324.944 359.424C324.276 359.986 323.517 360.625 322.664 361.347L321.903 361.507C321.531 362.014 321.17 362.401 320.823 362.667C320.504 362.935 320.21 363.121 319.943 363.229C319.517 363.389 319.089 363.535 318.663 363.669C318.236 363.829 317.783 363.989 317.303 364.149C317.01 364.069 316.797 363.896 316.663 363.629C316.529 363.361 316.476 363.014 316.503 362.588C316.103 361.866 315.784 361.039 315.543 360.105C315.303 359.171 315.183 358.13 315.183 356.982C315.183 356.769 315.197 356.542 315.222 356.301C315.25 356.061 315.276 355.848 315.303 355.66C315.116 354.967 315.023 354.553 315.023 354.419C315.023 353.618 315.33 352.965 315.943 352.458C316.556 351.924 317.25 351.657 318.023 351.657C318.423 351.657 318.703 351.871 318.863 352.298C319.05 352.699 319.237 352.898 319.424 352.898C319.609 352.898 319.796 352.537 319.984 351.817C320.197 351.07 320.396 349.989 320.583 348.574C320.77 347.345 320.89 346.278 320.943 345.371C320.997 344.463 321.023 343.769 321.023 343.289C321.023 342.942 320.943 342.688 320.784 342.528C320.65 342.341 320.41 342.248 320.063 342.248C319.716 342.248 318.596 343.049 316.703 344.65C314.81 346.252 312.169 348.641 308.783 351.817C308.675 352.004 308.516 352.231 308.303 352.498C308.116 352.764 307.889 353.098 307.623 353.498C307.516 353.098 307.329 352.604 307.063 352.017C306.797 351.43 306.45 350.697 306.022 349.815ZM331.064 349.815C331.383 349.255 331.797 348.694 332.303 348.134C332.81 347.546 333.45 346.946 334.223 346.331C334.304 345.798 334.384 345.278 334.463 344.771C334.544 344.236 334.597 343.702 334.623 343.169C334.704 342.794 334.824 342.354 334.984 341.847C335.171 341.34 335.37 340.794 335.584 340.206C335.823 339.618 336.144 338.884 336.544 338.004C336.97 337.123 337.518 336.135 338.184 335.041C338.744 334.426 339.331 333.759 339.944 333.039C340.557 332.292 341.17 331.544 341.785 330.797C342.077 330.556 342.398 330.329 342.745 330.116C343.091 329.903 343.437 329.662 343.784 329.396C344.104 329.289 344.464 329.195 344.864 329.116C345.264 329.035 345.705 328.995 346.184 328.995C346.85 328.995 347.384 329.062 347.784 329.195C348.212 329.329 348.557 329.556 348.825 329.875C349.01 330.09 349.184 330.41 349.345 330.836C349.53 331.264 349.704 331.785 349.864 332.398C349.944 332.933 350.037 333.519 350.145 334.16C350.145 334 350.092 334.067 349.984 334.361C349.905 334.653 349.771 335.121 349.584 335.762L349.225 337.042C348.85 338.324 348.011 339.806 346.704 341.487C345.397 343.169 343.637 345.09 341.424 347.253C341.237 347.44 341.077 347.68 340.944 347.973C340.811 348.241 340.744 348.534 340.744 348.854C340.744 349.415 340.837 349.908 341.024 350.336C341.237 350.762 341.531 351.083 341.903 351.297C342.118 351.456 342.451 351.616 342.904 351.778C343.383 351.937 343.945 352.084 344.584 352.218C345.624 352.137 346.57 351.963 347.424 351.697C348.277 351.43 349.038 351.109 349.704 350.736C349.838 350.656 350.051 350.549 350.344 350.416C350.638 350.255 350.931 350.056 351.225 349.815C351.57 350.59 351.878 351.283 352.144 351.898C352.411 352.511 352.624 353.044 352.784 353.498C351.264 354.993 349.877 356.128 348.624 356.903C347.398 357.65 346.264 358.023 345.224 358.023C344.798 358.29 344.304 358.491 343.744 358.623C343.21 358.731 342.571 358.784 341.824 358.784C340.837 358.784 339.958 358.637 339.184 358.343C338.437 358.051 337.81 357.623 337.303 357.062C337.037 356.796 336.771 356.408 336.503 355.901C336.237 355.368 335.957 354.741 335.664 354.019C335.423 353.433 335.197 353.005 334.984 352.738C334.771 352.445 334.53 352.298 334.264 352.298C334.05 352.298 333.811 352.405 333.543 352.618C333.277 352.805 332.983 353.098 332.664 353.498C332.557 353.098 332.37 352.604 332.104 352.017C331.836 351.43 331.49 350.697 331.064 349.815ZM343.864 336.803C343.277 336.803 342.491 337.577 341.503 339.125C340.518 340.646 340.023 341.767 340.023 342.488C340.023 342.648 340.051 342.769 340.104 342.848C340.184 342.902 340.331 342.928 340.544 342.928C340.837 342.928 341.077 342.782 341.264 342.488C341.45 342.167 341.624 341.875 341.785 341.607C342.077 341.34 342.357 341.06 342.624 340.766C342.918 340.447 343.198 340.139 343.464 339.845C343.784 339.472 344.024 339.098 344.184 338.725C344.345 338.35 344.424 337.977 344.424 337.604C344.424 337.363 344.371 337.176 344.264 337.042C344.184 336.882 344.051 336.803 343.864 336.803ZM351.225 349.815C351.464 349.549 351.704 349.227 351.944 348.854C352.185 348.454 352.504 348.027 352.904 347.574L355.545 345.25C355.651 345.171 355.705 345.065 355.705 344.931C355.731 344.797 355.744 344.611 355.744 344.37C355.718 344.023 355.677 343.743 355.624 343.53C355.624 342.915 355.744 341.887 355.985 340.447C356.225 339.005 356.438 338.137 356.625 337.843L356.385 337.083C356.732 335.294 357.211 333.345 357.825 331.237C358.464 329.102 359.185 326.792 359.985 324.31C360.251 323.884 360.531 323.35 360.825 322.709C361.118 322.042 361.452 321.294 361.824 320.467C362.278 319.079 362.878 317.623 363.625 316.102C364.371 314.581 365.212 313.019 366.144 311.417C367.398 309.308 368.505 307.72 369.465 306.653C370.452 305.586 371.332 305.051 372.106 305.051C373.651 305.051 374.705 305.359 375.265 305.972C375.852 306.56 376.146 307.681 376.146 309.336C376.146 309.762 376.065 310.43 375.906 311.338C375.772 312.218 375.705 312.886 375.705 313.34C375.705 313.794 375.559 314.433 375.265 315.262C374.972 316.088 374.826 316.85 374.826 317.544C374.798 317.757 374.731 317.97 374.625 318.185L374.666 318.745C374.558 319.118 374.398 319.572 374.185 320.106C373.972 320.639 373.692 321.28 373.345 322.028C373.158 322.695 372.918 323.47 372.625 324.35C372.332 325.231 371.986 326.192 371.586 327.234C371.426 327.5 371.211 327.834 370.945 328.234C370.705 328.608 370.439 329.035 370.145 329.516C370.064 329.863 369.932 330.262 369.745 330.717C369.558 331.171 369.305 331.704 368.984 332.318C368.825 332.639 368.612 332.986 368.345 333.359C368.078 333.733 367.758 334.213 367.386 334.801C367.225 335.067 367.051 335.401 366.865 335.801C366.678 336.202 366.465 336.655 366.225 337.162C365.931 337.616 365.545 338.178 365.064 338.845C364.585 339.512 364.038 340.299 363.425 341.206C362.599 342.676 361.745 344.076 360.865 345.41C360.865 348 361.371 349.963 362.384 351.297C363.425 352.604 364.972 353.259 367.025 353.259C367.159 353.259 367.558 353.165 368.225 352.979C368.892 352.792 369.812 352.498 370.985 352.097C371.332 351.884 371.745 351.59 372.225 351.217C372.705 350.817 373.251 350.349 373.866 349.815L375.425 353.498C374.731 354.113 374.039 354.741 373.345 355.38C372.652 356.021 371.945 356.648 371.225 357.262C370.399 357.956 369.558 358.491 368.705 358.864C367.851 359.211 367.011 359.384 366.185 359.384C365.758 359.384 365.105 359.345 364.225 359.264C363.345 359.158 362.678 359.104 362.224 359.104C360.731 359.104 359.491 358.504 358.505 357.303C357.544 356.102 356.864 354.299 356.464 351.898C356.411 351.657 356.331 351.444 356.225 351.257C356.144 351.07 355.985 350.856 355.744 350.616C355.398 350.963 354.984 351.377 354.505 351.857C354.051 352.338 353.491 352.885 352.824 353.498L351.225 349.815ZM370.305 318.384L370.025 318.225C368.531 319.666 367.398 321.028 366.625 322.308C365.878 323.59 365.505 324.831 365.505 326.032C365.505 326.22 365.411 326.539 365.224 326.993C365.064 327.419 364.812 327.981 364.465 328.674C364.038 329.502 363.598 330.41 363.145 331.398C362.638 332.892 362.252 334.107 361.984 335.041C361.718 335.975 361.584 336.642 361.584 337.042L361.824 337.363C362.065 337.336 362.358 337.095 362.705 336.642C363.052 336.188 363.452 335.521 363.905 334.641C364.118 334.16 364.425 333.6 364.826 332.959C365.224 332.318 365.679 331.558 366.185 330.676C366.611 330.09 367.291 328.581 368.225 326.153C369.158 323.723 369.664 322.176 369.745 321.507C369.772 320.974 369.838 320.454 369.946 319.947C370.078 319.412 370.198 318.891 370.305 318.384ZM373.785 349.815C373.892 349.628 374.039 349.428 374.225 349.215C374.385 348.975 374.585 348.694 374.826 348.373C375.465 347.44 375.998 346.639 376.426 345.972C376.852 345.278 377.159 344.743 377.345 344.37C377.719 343.676 378.012 342.956 378.225 342.208C378.466 341.461 378.651 340.686 378.785 339.886C379.319 336.069 380.252 331.97 381.586 327.593C382.918 323.216 384.613 318.505 386.666 313.46C387.412 311.699 388.212 310.377 389.065 309.496C389.919 308.588 390.799 308.134 391.706 308.134C392.399 308.134 392.959 308.282 393.385 308.575C393.813 308.842 394.093 309.282 394.226 309.896C394.28 310.137 394.319 310.551 394.346 311.137C394.4 311.725 394.426 312.486 394.426 313.419C394.426 313.634 394.213 315.542 393.785 319.146C393.359 320.933 392.76 323.162 391.986 325.831C391.213 328.475 390.253 331.544 389.106 335.041C388.839 335.521 388.533 336.135 388.186 336.882C387.839 337.63 387.412 338.524 386.905 339.565C386.826 339.752 386.732 340.005 386.625 340.326C386.546 340.62 386.426 340.954 386.266 341.327C386.079 341.514 385.866 341.821 385.626 342.248C385.413 342.676 385.159 343.209 384.865 343.85C384.386 345.345 383.919 347.227 383.466 349.495C383.038 351.764 382.638 354.447 382.266 357.542C381.893 360.452 381.612 363.042 381.426 365.31C381.239 367.606 381.146 369.595 381.146 371.276C381.172 371.917 381.225 372.584 381.306 373.278C381.385 374.106 381.465 374.733 381.546 375.16C381.653 375.614 381.785 375.84 381.946 375.84C382.319 375.84 382.892 375.014 383.665 373.359C384.465 371.73 385.492 369.274 386.745 365.991L386.625 365.19C386.732 364.95 386.879 364.643 387.066 364.269C387.279 363.896 387.453 363.415 387.585 362.828C388.253 360.692 388.746 359.037 389.065 357.863C389.386 356.662 389.585 355.981 389.666 355.822C390.039 354.753 390.519 353.713 391.106 352.699C391.719 351.683 392.399 350.723 393.146 349.815C393.546 350.616 393.866 351.324 394.106 351.937C394.346 352.551 394.559 353.072 394.747 353.498C394.372 353.979 394.012 354.593 393.667 355.34C393.32 356.061 393.04 356.862 392.825 357.743C392.587 358.491 392.372 359.264 392.186 360.065C392.025 360.84 391.852 361.586 391.666 362.308C390.332 367.405 389.026 371.637 387.746 375C386.465 378.389 385.252 380.912 384.106 382.567C383.919 382.914 383.692 383.261 383.426 383.609C383.186 383.956 382.959 384.289 382.746 384.609C382.425 384.956 382.092 385.223 381.745 385.41C381.399 385.623 381.039 385.73 380.665 385.73C379.518 385.73 378.598 385.477 377.906 384.97C377.238 384.463 376.773 383.702 376.505 382.687C376.373 381.833 376.252 380.979 376.146 380.125C376.065 379.297 375.972 378.47 375.865 377.642C375.705 377.109 375.585 376.548 375.506 375.961C375.425 375.4 375.385 374.773 375.385 374.079V367.993C375.385 367.699 375.439 367.246 375.545 366.632C375.679 366.018 375.746 365.551 375.746 365.23C375.585 364.429 375.425 363.616 375.265 362.787C375.346 361.854 375.478 360.679 375.665 359.264C375.878 357.85 376.132 356.234 376.426 354.419L375.385 353.498C375.279 353.152 375.092 352.671 374.826 352.058C374.558 351.444 374.213 350.697 373.785 349.815ZM389.546 322.909C389.386 322.909 389.266 323.016 389.185 323.229C389.132 323.417 389.039 323.697 388.905 324.07C388.879 324.338 388.785 324.697 388.626 325.151C388.466 325.605 388.253 326.179 387.985 326.873C387.772 327.46 387.599 327.981 387.466 328.435C387.358 328.861 387.305 329.208 387.305 329.475L387.585 329.796L388.186 329.195C388.212 328.794 388.32 328.354 388.505 327.873C388.692 327.394 388.946 326.845 389.266 326.232C389.532 325.672 389.733 325.192 389.865 324.791C389.999 324.391 390.066 324.056 390.066 323.79C390.066 323.47 390.026 323.243 389.946 323.109C389.865 322.975 389.733 322.909 389.546 322.909Z" fill="url(#paint1_radial_1871_6175)"/>
<path d="M323.683 281.441C337.748 262.128 346.214 239.306 348.149 215.485C350.085 191.666 345.414 167.774 334.654 146.44C323.892 125.107 307.455 107.161 287.156 94.5787C266.858 81.9965 243.483 75.2664 219.608 75.1296C195.731 74.9929 172.281 81.4549 151.84 93.8038C131.398 106.153 114.758 123.91 103.753 145.118C92.7485 166.327 87.8054 190.164 89.4684 214.004C91.1316 237.845 99.3363 260.763 113.179 280.235" stroke="url(#paint2_linear_1871_6175)" stroke-width="15" stroke-linecap="round"/>
<path d="M301.638 266.704C312.743 251.33 319.427 233.16 320.956 214.198C322.484 195.234 318.797 176.213 310.302 159.23C301.806 142.247 288.831 127.961 272.806 117.944C256.78 107.928 238.327 102.571 219.478 102.462C200.629 102.354 182.115 107.499 165.977 117.33C149.838 127.161 136.701 141.298 128.013 158.182C119.324 175.066 115.421 194.043 116.734 213.022C118.046 232.003 124.523 250.248 135.452 265.748" stroke="url(#paint3_radial_1871_6175)" stroke-width="10" stroke-linecap="round"/>
<path d="M182.625 211.307C182.622 212.286 183.303 213.61 184.667 215.277C186.08 216.897 188.176 218.909 190.956 221.315C192.76 222.838 194.614 224.336 196.516 225.809C198.467 227.234 200.395 228.683 202.297 230.158C203.126 230.845 204.199 231.753 205.515 232.883C206.833 233.963 208.369 235.24 210.125 236.714C211.393 237.696 212.71 238.679 214.076 239.662C215.491 240.644 217.004 241.627 218.615 242.611C219.688 243.446 220.883 244.355 222.2 245.337C223.517 246.32 225.029 247.376 226.738 248.507C227.714 249.097 228.469 250.175 229.001 251.743C229.535 253.263 229.846 255.246 229.938 257.692L229.272 259.598L228.537 259.963C228.048 259.962 227.389 259.741 226.559 259.296C225.778 258.903 224.778 258.312 223.558 257.527C223.313 257.379 222.191 256.838 220.189 255.902C218.237 254.965 215.405 253.637 211.694 251.912C209.643 251.025 207.763 250.041 206.055 248.96C204.348 247.83 202.786 246.651 201.373 245.423C200.543 244.687 199.469 243.876 198.153 242.991C196.884 242.106 195.371 241.147 193.614 240.115C191.808 239.082 190.247 238.098 188.929 237.165C187.612 236.231 186.563 235.445 185.783 234.807C183.149 232.645 181.003 231 179.344 229.869C177.685 228.739 176.537 228.173 175.902 228.171C175.411 228.855 175.14 229.563 175.089 230.297C174.495 232.596 173.851 235.505 173.156 239.027C172.511 242.5 171.79 246.559 170.994 251.206C170.991 252.038 170.843 252.649 170.549 253.04C170.254 253.48 169.813 253.699 169.227 253.697C167.32 253.69 165.879 253.222 164.904 252.29C163.929 251.356 163.444 249.961 163.449 248.101C163.457 245.605 163.611 242.988 163.912 240.248C164.263 237.508 164.809 234.623 165.551 231.591C165.8 230.27 165.974 229.096 166.075 228.069C166.225 226.993 166.301 226.014 166.304 225.134C166.31 222.882 165.338 220.946 163.387 219.326C161.485 217.705 160.535 216.553 160.537 215.868C160.54 214.791 160.69 213.862 160.985 213.08C161.33 212.249 161.821 211.589 162.458 211.101C164.074 210.079 165.568 209.104 166.94 208.179C167.283 207.984 167.504 207.666 167.603 207.226C167.751 206.737 167.826 206.077 167.829 205.245C167.83 204.755 167.832 204.242 167.833 203.703C167.835 203.117 167.836 202.578 167.838 202.089C167.997 197.734 168.133 193.207 168.244 188.51C168.245 188.167 168.247 187.629 168.249 186.895C168.251 186.161 168.205 185.206 168.111 184.032C168.016 183.151 167.994 182.343 168.045 181.609C168.096 180.826 168.122 180.117 168.124 179.481C167.834 178.501 167.567 177.668 167.325 176.982C167.132 176.248 167.036 175.562 167.038 174.926C167.039 174.339 167.091 173.434 167.192 172.211C167.294 170.939 167.345 170.033 167.347 169.495C167.349 168.81 167.278 167.856 167.135 166.632C167.041 165.408 166.995 164.478 166.997 163.842C167.002 162.08 167.398 160.393 168.185 158.78C169.021 157.168 170.272 155.581 171.939 154.02C173.556 152.655 175.197 151.632 176.862 150.952C178.575 150.223 180.312 149.861 182.072 149.866C182.903 149.868 184.125 149.945 185.738 150.097C187.4 150.2 188.695 150.252 189.624 150.255C190.26 150.257 191.994 150.8 194.826 151.885C195.951 151.986 196.952 152.136 197.832 152.335C198.712 152.484 199.42 152.657 199.957 152.855C201.178 153.445 202.129 153.913 202.813 154.258C203.497 154.553 203.985 154.726 204.278 154.776C205.108 155.072 205.817 155.319 206.403 155.516C207.038 155.714 207.551 155.96 207.94 156.255C208.575 156.55 209.308 156.895 210.137 157.289C211.016 157.683 211.993 158.126 213.067 158.619C214.825 159.505 216.46 160.537 217.972 161.716C219.532 162.895 220.996 164.172 222.36 165.546C223.921 167.313 225.088 169.053 225.865 170.768C226.643 172.434 227.03 174.099 227.024 175.763C227.023 176.253 226.972 176.962 226.871 177.891C226.819 178.772 226.695 179.775 226.496 180.9C226.346 182.319 225.607 183.858 224.283 185.518C222.957 187.129 221.045 188.91 218.547 190.86C216.341 192.566 214.284 194.004 212.374 195.173C210.463 196.293 208.701 197.095 207.086 197.579C206.449 198.018 205.959 198.432 205.616 198.823C205.125 199.311 204.097 199.993 202.529 200.869C200.963 201.746 198.833 202.841 196.14 204.154C191.244 206.538 187.768 208.117 185.712 208.894C183.656 209.622 182.627 210.427 182.625 211.307ZM175.028 175.904C175.959 175.222 176.841 174.563 177.674 173.93C178.507 173.247 179.584 172.908 180.904 172.912C181.491 172.913 182.198 173.576 183.025 174.9C183.901 176.175 184.338 177.13 184.337 177.767C184.336 178.109 184.211 178.892 183.963 180.114C183.715 181.337 183.319 183 182.775 185.102C181.637 189.846 180.992 192.829 180.842 194.052C180.692 195.226 180.369 197.085 179.872 199.628C179.675 200.263 179.477 201.096 179.278 202.122C179.277 202.562 179.349 202.88 179.495 203.077C179.69 203.274 179.935 203.372 180.228 203.372C189.972 198.508 195.015 195.978 195.358 195.783C195.749 195.686 196.165 195.565 196.605 195.42C197.046 195.225 197.462 195.031 197.854 194.836L198.957 193.445C201.799 191.642 204.738 189.718 207.775 187.672C209.687 186.209 211.108 184.77 212.042 183.353C212.974 181.937 213.443 180.519 213.447 179.1C213.452 177.289 212.406 175.5 210.309 173.732C208.212 171.964 205.063 170.267 200.863 168.639C197.299 167.21 194.051 166.173 191.12 165.528C188.188 164.834 185.524 164.484 183.129 164.477C180 164.467 177.627 165.023 176.01 166.144C174.443 167.216 173.656 168.829 173.649 170.982C173.645 172.646 173.763 173.918 174.005 174.8C174.247 175.632 174.588 176.001 175.028 175.904ZM223.857 230.734C224.984 229.563 226.699 228.149 229.003 226.492C231.354 224.835 233.093 223.471 234.221 222.396C234.957 221.518 235.913 220.468 237.09 219.249C238.268 217.979 239.665 216.491 241.284 214.783C242.265 213.905 243.219 213.223 244.15 212.737C245.08 212.25 246.01 212.008 246.938 212.011C248.113 212.014 249.015 212.31 249.65 212.899C250.333 213.488 250.671 214.419 250.669 215.692C250.663 217.601 249.92 220.681 248.44 224.934C246.962 229.187 246.219 232.415 246.212 234.617C246.211 235.106 246.308 235.449 246.503 235.646C246.747 235.842 247.015 235.941 247.308 235.941L247.676 235.869C248.606 235.285 249.684 234.554 250.909 233.677C252.183 232.75 253.604 231.63 255.172 230.312C256.447 229.142 258.016 227.605 259.879 225.702C261.791 223.799 264.022 221.604 266.573 219.115C267.552 218.335 268.655 217.336 269.881 216.115C271.156 214.896 272.578 213.431 274.148 211.724C274.785 210.844 275.667 210.162 276.794 209.675C277.968 209.19 279.387 208.95 281.05 208.954C282.174 208.958 283.004 209.181 283.54 209.622C284.126 210.016 284.418 210.628 284.415 211.46C284.414 211.802 284.365 212.145 284.265 212.487C284.216 212.781 284.166 213.074 284.116 213.368C283.77 214.835 283.251 216.644 282.56 218.795C281.87 220.897 281.031 223.391 280.045 226.275C279.208 228.083 278.322 230.259 277.385 232.801C276.499 235.294 275.536 238.056 274.501 241.087L275.012 241.748C276.04 241.262 277.56 240.117 279.57 238.313C281.629 236.458 284.202 233.995 287.292 230.92L290.205 237.683C289.813 238.073 289.323 238.561 288.734 239.146C288.195 239.683 287.46 240.268 286.529 240.902C281.287 244.606 276.777 248.287 273.002 251.946C269.276 255.557 266.308 259.145 264.097 262.71C260.807 268.084 258.055 272.456 255.845 275.826C253.685 279.196 252.113 281.565 251.131 282.933C247.744 287.376 244.533 290.67 241.495 292.814C238.457 294.958 235.496 296.026 232.611 296.017C231.535 296.015 230.754 295.792 230.267 295.35C229.78 294.908 229.537 294.222 229.539 293.292C229.541 292.803 229.665 292.192 229.912 291.458C230.158 290.726 230.6 289.944 231.239 289.113C232.172 287.794 233.031 286.428 233.817 285.01L236.023 283.108C236.22 282.472 236.32 282.032 236.32 281.788C236.516 281.543 236.787 281.251 237.129 280.909C237.521 280.567 237.962 280.178 238.453 279.739C238.798 278.859 239.707 277.394 241.179 275.342C242.7 273.34 244.811 270.753 247.509 267.58C249.52 265.237 251.359 263.138 253.028 261.284C254.695 259.478 256.118 257.941 257.295 256.671C257.491 256.28 257.688 255.816 257.886 255.278C258.132 254.741 258.328 254.203 258.477 253.666C259.116 252.395 259.806 250.856 260.544 249.046C261.331 247.238 262.266 245.112 263.349 242.668C263.843 241.251 264.262 239.637 264.611 237.827C264.959 235.969 265.282 233.964 265.581 231.811C265.484 231.616 265.412 231.37 265.364 231.076C265.364 230.734 265.269 230.268 265.075 229.681C264.193 230.119 263.214 230.777 262.135 231.654C261.106 232.532 259.978 233.557 258.753 234.728C257.134 236.827 255.49 238.585 253.824 239.998C252.157 241.363 250.517 242.411 248.9 243.14C247.819 245.242 246.421 246.804 244.707 247.826C243.042 248.799 241.11 249.283 238.909 249.277C237.296 249.272 236.074 248.902 235.245 248.165C234.416 247.379 234.004 246.204 234.01 244.638C234.01 244.344 234.035 243.977 234.086 243.537C234.184 243.097 234.309 242.583 234.457 241.997C234.262 241.507 234.02 240.82 233.73 239.939C233.928 239.108 234.101 238.179 234.251 237.151C234.255 235.683 234.137 234.582 233.893 233.846C233.701 233.112 233.36 232.745 232.871 232.743L232.577 232.888C232.038 233.279 231.279 233.864 230.298 234.644C229.318 235.423 228.142 236.375 226.77 237.497C226.527 236.86 226.236 236.1 225.896 235.218C225.507 234.336 225.12 233.308 224.732 232.131C224.635 231.837 224.513 231.568 224.367 231.323C224.222 231.077 224.052 230.882 223.857 230.734Z" fill="#A756A5"/>
<defs>
<radialGradient id="paint0_radial_1871_6175" cx="0" cy="0" r="1" gradientUnits="userSpaceOnUse" gradientTransform="translate(61.076 307.081) scale(191.154 415.125)">
<stop stop-color="#A756A5"/>
<stop offset="1" stop-color="#767CC8"/>
</radialGradient>
<radialGradient id="paint1_radial_1871_6175" cx="0" cy="0" r="1" gradientUnits="userSpaceOnUse" gradientTransform="translate(395.573 334.414) rotate(180) scale(204.808 546.667)">
<stop stop-color="#767CC8"/>
<stop offset="1" stop-color="#A756A5"/>
</radialGradient>
<linearGradient id="paint2_linear_1871_6175" x1="219.246" y1="75.1281" x2="218.64" y2="281.132" gradientUnits="userSpaceOnUse">
<stop stop-color="#A756A5"/>
<stop offset="1" stop-color="#767CC8"/>
</linearGradient>
<radialGradient id="paint3_radial_1871_6175" cx="0" cy="0" r="1" gradientUnits="userSpaceOnUse" gradientTransform="translate(218.286 101.84) rotate(90) scale(170.833 213.341)">
<stop stop-color="#CAA0FF"/>
<stop offset="1" stop-color="#B0BAF8"/>
</radialGradient>
</defs>
</svg>
